<svg xmlns="http://www.w3.org/2000/svg" xmlns:xlink="http://www.w3.org/1999/xlink" version="1.1" x="0px" y="0px" width="100px" height="100px" viewBox="0 0 100 100" enable-background="new 0 0 100 100" xml:space="preserve">
<g id="Your_Icon" display="none">
	<path display="inline" d="M39.108,14.667l17.623-7.683C50.194,6.042,34.449,1.26,30.236,0C30.236,0,34.813,7.406,39.108,14.667z"/>
	<path display="inline" d="M37.435,15.529l-16.222,7.499c1.665-3.011,6.764-12.848,7.824-22.192   C29.037,0.836,32.741,6.787,37.435,15.529z"/>
	<path display="inline" d="M39.92,16.147l17.409-7.694c-0.494,6.688-2.392,32.31-2.91,38.25   C54.419,46.704,46.234,26.265,39.92,16.147z"/>
	<path display="inline" d="M38.164,16.95l-16.58,7.648L53.03,47.036C53.03,47.036,43.769,24.759,38.164,16.95z"/>
	<path display="inline" d="M62.96,84.625c-1.594,5.768-3.218,10.879-1.912,15.375c0,0-3.15-5.033,0.418-18.709   c0,0,2.441-9.971-0.247-19.125c0,0-3.575-10.245-7.097-13.879c0,0,10.382,8.658,11.08,21.053   C65.515,74.877,64.247,79.965,62.96,84.625"/>
</g>
<g id="Layer_2">
	<polygon points="100,57.299 100,42.702 64.261,50  "/>
	<polygon points="0,42.702 0,57.299 35.74,50  "/>
	<polygon points="100,57.299 100,42.702 64.261,50  "/>
	<polygon points="0,42.702 0,57.299 35.74,50  "/>
	<polygon points="42.702,100 57.299,100 50,64.261  "/>
	<polygon points="57.299,0 42.702,0 50,35.74  "/>
	<polygon points="42.702,100 57.299,100 50,64.261  "/>
	<polygon points="57.299,0 42.702,0 50,35.74  "/>
	<polygon points="77.176,86.465 86.465,77.176 59.075,59.075  "/>
	<polygon points="22.825,13.536 13.536,22.825 40.925,40.925  "/>
	<polygon points="13.536,77.176 22.825,86.465 40.925,59.075  "/>
	<polygon points="86.465,22.825 77.176,13.536 59.075,40.925  "/>
</g>
</svg>